<?xml version="1.0" encoding="utf-8"?>
<!-- Generator: Adobe Illustrator 26.5.0, SVG Export Plug-In . SVG Version: 6.00 Build 0)  -->
<svg version="1.1" id="Layer_1" xmlns="http://www.w3.org/2000/svg" xmlns:xlink="http://www.w3.org/1999/xlink" x="0px" y="0px"
	 viewBox="0 0 36 36.4" style="enable-background:new 0 0 36 36.4;" xml:space="preserve">
<style type="text/css">
	.st0{fill:#FDCB58;}
	.st1{fill:#FFCC4D;}
</style>
<path class="st0" d="M30.3,24.9c3.4-3.4,3.4-8.9,0-12.3c-2.1-2.1-4.9-2.9-7.6-2.4c0.4-2.7-0.4-5.5-2.4-7.6c-3.4-3.4-8.9-3.4-12.3,0
	C7.5,3,7.1,3.6,6.7,4.1c-4.5,6.2-4.2,17.7-1.5,23.5c5.8,2.7,17.3,3,23.5-1.5C29.3,25.8,29.8,25.4,30.3,24.9z"/>
<path class="st1" d="M35.1,32.9c0.8-0.5,1.1-1.4,0.8-2.2c-0.3-0.8-1.1-1.3-1.9-1.3h-2c-0.6,0-1-0.4-1-1s0.4-1,1-1h1.5
	c0.8,0,1.5-0.7,1.5-1.5s-0.7-1.5-1.5-1.5c-0.8,0-1.5-0.6-1.5-1.4v0c0-0.3,0.1-0.6,0.2-0.8c1-2.3-29.1-1.6-28.2,0.4v1.9
	c0,1.1-0.9,2-2,2c-1.1,0-2,0.9-2,2c0,0.1,0,0.1,0,0.2c0.1,1.1,1.1,1.8,2.1,1.8h8c0.6,0,1.2,0.5,1.2,1.2c0,0.3-0.1,0.6-0.3,0.8
	l-3,0.8C7.3,33.3,6.9,34,7,34.7c0.1,0.5,0.5,0.8,0.9,0.9c1.9,0.5,3.9,0.7,5.9,0.8l2.7,0c1.4,0,2.8-0.3,4-1c1.7-1,3.7-1.3,5.6-0.9
	C29.3,35.1,32.4,34.5,35.1,32.9z"/>
</svg>
