<?xml version="1.0" encoding="utf-8"?>
<!-- Generator: Adobe Illustrator 26.5.0, SVG Export Plug-In . SVG Version: 6.00 Build 0)  -->
<svg version="1.1" xmlns="http://www.w3.org/2000/svg" xmlns:xlink="http://www.w3.org/1999/xlink" x="0px" y="0px"
	 viewBox="0 0 36 36" style="enable-background:new 0 0 36 36;" xml:space="preserve">
<style type="text/css">
	.st0{fill:#31373D;}
	.st1{fill:#282828;}
	.st2{display:none;}
	.st3{display:inline;}
</style>
<g id="Layer_1">
	<path class="st0" d="M35.9,11.8C35.9,6.4,31.5,2,26,2c-3.3,0-6.2,1.6-8,4.1C16.2,3.6,13.3,2,10,2c-5.4,0-9.9,4.4-9.9,9.9
		c0,0.8,0.1,1.5,0.3,2.2C1.8,22.6,11.2,31.6,18,34c6.8-2.5,16.2-11.4,17.6-20C35.8,13.4,35.9,12.6,35.9,11.8z"/>
	<g>
		<path class="st1" d="M35.9,12.3c-0.6-1.4-1.3-2.6-2.3-3.8c-2.4-3.2-5.8-5.4-9.4-6.3c-1.7,0.3-3.2,1.1-4.5,2.2
			c4.5,0.1,9,2.4,11.6,6c1.8,2.3,2.8,5.2,3,8.1c0.6-1.4,1.1-2.9,1.3-4.3C35.8,13.5,35.8,12.9,35.9,12.3z"/>
		<path class="st1" d="M19.6,9.3c-5.7-0.8-10.7,5.4-8.3,10.8c1.4,3.4,6,5.2,9.2,3.3c3.3-1.8,4-7.1,0.7-9.2c-1.5-1-3.7-1.2-5.2-0.1
			c-3.7,2.5-1.3,8.4,3.1,6.9c1.8-0.7,2.5-3.3,1.1-4.7c-1.4-1.5-4.2-0.7-4.2,1.4c-0.1,1.5,1.9,2.7,3.1,1.6c0.4-0.3,0.6-0.8,0.6-1.3
			h-0.3c-0.2,2-3,1.5-2.9-0.3c0-0.8,0.6-1.4,1.3-1.6c2.6-0.5,3.3,3.1,1,4.1c-1.3,0.5-2.9-0.3-3.4-1.6c-1-3.1,2.6-5.3,5.1-3.4
			c3.9,3.2-0.3,8.9-4.7,6.9c-4.4-1.6-4.1-7.8-0.3-10c2.3-1.5,5.7-1,7.8,0.8c4.8,3.8,2.5,11.9-3,13.7c-2.6,1-5.8,0.6-8.3-0.8
			c-8.7-5-5.7-18,3.2-20.8c0.5-0.2,1-0.3,1.5-0.4c-0.9-0.8-1.9-1.5-3.1-2c-3,1.2-5.7,3.3-7.5,6.5c-1.8,3.1-2.5,6.9-1.7,10.5
			c1.9,9.4,14.6,13.9,21.1,6.2C30.8,19.9,27.8,10.1,19.6,9.3z"/>
	</g>
</g>
<g id="Layer_2" class="st2">
	<g class="st3">
		<path d="M42,20.6c-0.4-6.9-4-13.5-9.8-17.2c-6.8-4.6-16.8-5-22.9,0.9C3.5,9.5,2,19.9,8.3,25.4c3.4,3,8.6,4.2,12.7,2.1
			c4-2,6.3-7.1,4.7-11.3c-2.2-5.8-11.3-6.5-12.6,0.4c-0.5,2.8,2,5.6,4.8,5.2c4-0.5,4.2-6.6-0.2-6.2c-2.2,0.5-2.3,4,0.3,3.8
			c0.6-0.1,1.2-0.7,1.2-1.4c0.1-1.1-1.6-1.6-2-0.4C17,18.4,18,19,18.4,18.3c0.2-0.3,0-0.8-0.4-0.8v-0.2c1.4,0.2,0.5,2.1-0.6,1.5
			c-1-0.5-0.6-2,0.4-2.2c0.9-0.3,2,0.5,2,1.5c0.1,0.9-0.7,1.8-1.6,2c-2,0.4-3.5-1.9-2.7-3.6c2.1-4.1,7.9-0.8,6.5,3.2
			c-1.1,3.9-6.2,4.4-8.8,1.7c-4.2-4.3,0-11.7,5.7-11.5c8.3,0.1,11.7,9.6,7,15.8c-4.3,6.3-13.7,6-18.9,1c-8.6-7.7-4.3-22.3,5.7-26.6
			C22.5-4.4,35,1,39.7,10.4c1.6,3.1,2.5,6.7,2.5,10.2H42L42,20.6z"/>
	</g>
</g>
</svg>
