<?xml version="1.0" encoding="utf-8"?>
<!-- Generator: Adobe Illustrator 26.5.0, SVG Export Plug-In . SVG Version: 6.00 Build 0)  -->
<svg version="1.1" id="Layer_1" xmlns="http://www.w3.org/2000/svg" xmlns:xlink="http://www.w3.org/1999/xlink" x="0px" y="0px"
	 viewBox="0 0 36 36" style="enable-background:new 0 0 36 36;" xml:space="preserve">
<style type="text/css">
	.st0{fill:#AA8ED6;}
	.st1{fill:#FCAB40;}
</style>
<path class="st0" d="M26,4.6c-1.5-3.7-5.7-5.4-9.3-3.9c-2.2,0.9-3.7,2.8-4.2,5c-1.9-1.2-4.3-1.5-6.5-0.6C2.3,6.6,0.5,10.8,2,14.5
	c0.2,0.5,0.5,1,0.8,1.4c3.3,5.3,12.1,8.7,17.3,8.5c3.9-3.5,7.7-12.1,6.3-18.2C26.4,5.7,26.2,5.1,26,4.6z"/>
<path class="st1" d="M33.8,35.7c-0.4,0.2-0.9,0-1.2-0.4c-0.1-0.1-2-2.9-5.5-2.5c-4.8,0.5-7.1-5.6-7.2-5.9c-0.2-0.5,0.1-1.1,0.6-1.3
	c0.5-0.2,1.1,0.1,1.3,0.6c0,0,1.8,4.9,5.1,4.6c4.6-0.5,7.2,3.3,7.3,3.4c0.3,0.5,0.2,1.1-0.3,1.4C34,35.7,33.9,35.7,33.8,35.7z"/>
<path class="st0" d="M20.7,28.8c-1,0.4-1.8-0.2-1.7-1.3l0.3-2.7c0.1-1.1,0.9-1.4,1.7-0.6l2,1.9c0.8,0.8,0.6,1.7-0.4,2.1L20.7,28.8z"
	/>
<path class="st1" d="M21.5,25.3L19.7,26c-0.5,0.2-1.1-0.1-1.3-0.6c-0.2-0.5,0.1-1.1,0.6-1.3l1.9-0.7c0.5-0.2,1.1,0.1,1.3,0.6
	C22.3,24.6,22.1,25.1,21.5,25.3z"/>
</svg>
