<?xml version="1.0" encoding="utf-8"?>
<!-- Generator: Adobe Illustrator 26.5.0, SVG Export Plug-In . SVG Version: 6.00 Build 0)  -->
<svg version="1.1" xmlns="http://www.w3.org/2000/svg" xmlns:xlink="http://www.w3.org/1999/xlink" x="0px" y="0px"
	 viewBox="0 0 36 36" style="enable-background:new 0 0 36 36;" xml:space="preserve">
<style type="text/css">
	.st0{fill:#66757F;}
	.st1{fill:#DD2E44;}
</style>
<g id="Layer_1">
</g>
<g id="Layer_3">
	<path class="st0" d="M18.2,29.6v-0.7c0.2,0,0.4-0.1,0.5-0.2l5.2-7.9l2.4,0.3c0.1-0.2,0.1-0.4,0.2-0.7h2.9c1,0,1.7-0.8,1.7-1.7v-1.7
		c0-1-0.8-1.7-1.7-1.7h-2.9c-0.3-1.2-0.7-2.3-1.4-3.3l2.1-2.1c0.7-0.7,0.7-1.8,0-2.4L26,6.4c-0.7-0.7-1.8-0.7-2.4,0l-2.1,2.1
		c-1-0.6-2.1-1.1-3.3-1.4V4.2c0-1-0.8-1.7-1.7-1.7h-1.7c-1,0-1.7,0.8-1.7,1.7v2.9c-1.2,0.3-2.3,0.7-3.3,1.4L7.7,6.4
		C7,5.7,5.9,5.7,5.3,6.4L4,7.6c-0.7,0.7-0.7,1.8,0,2.4l2.1,2.1c-0.6,1-1.1,2.1-1.4,3.3H1.8c-1,0-1.7,0.8-1.7,1.7v1.7
		c0,1,0.8,1.7,1.7,1.7h2.9c0.3,1.2,0.7,2.3,1.4,3.3L4,25.9c-0.7,0.7-0.7,1.8,0,2.4l1.2,1.2c0.7,0.7,1.8,0.7,2.4,0l2.1-2.1
		c1,0.6,2.1,1.1,3.3,1.4v2.9c0,1,0.8,1.7,1.7,1.7h1.9L18.2,29.6z M8.7,18c0-3.8,3.1-6.9,6.9-6.9s6.9,3.1,6.9,6.9
		c0,3.8-3.1,6.9-6.9,6.9S8.7,21.8,8.7,18z"/>
</g>
<g id="Layer_2">
	<path class="st1" d="M25.4,0.8c-3.5,0-6.7,1.7-8.6,4.4L14,9.8l4.2,4.5l-4.7,5l4.7,6.2l-3.8,5.2l2.4,4.4
		c7.3-2.6,17.4-12.2,18.8-21.3c0.2-0.8,0.3-1.6,0.3-2.4C35.9,5.6,31.2,0.8,25.4,0.8z"/>
</g>
</svg>
