<?xml version="1.0" encoding="utf-8"?>
<!-- Generator: Adobe Illustrator 26.5.0, SVG Export Plug-In . SVG Version: 6.00 Build 0)  -->
<svg version="1.1" xmlns="http://www.w3.org/2000/svg" xmlns:xlink="http://www.w3.org/1999/xlink" x="0px" y="0px"
	 viewBox="0 0 36 36" style="enable-background:new 0 0 36 36;" xml:space="preserve">
<style type="text/css">
	.st0{display:none;}
	.st1{fill:#5DADEC;}
	.st2{fill:#FBFFFF;stroke:#E5FEFF;stroke-width:4;stroke-linecap:round;stroke-miterlimit:10;}
	.st3{fill:none;stroke:#81B4E9;stroke-width:4;stroke-linecap:round;stroke-miterlimit:10;}
</style>
<g id="Layer_2" class="st0">
	
		<image style="display:inline;overflow:visible;" width="44" height="44" xlink:href="57B3911F77C99BFF.png"  transform="matrix(0.813 0 0 0.813 0.115 1.2609)">
	</image>
</g>
<g id="Layer_1">
	<path class="st1" d="M35.9,11.8C35.9,6.4,31.5,2,26,2c-3.3,0-6.2,1.6-8,4.1C16.2,3.6,13.3,2,10,2c-5.4,0-9.9,4.4-9.9,9.9
		c0,0.8,0.1,1.5,0.3,2.2C1.8,22.6,11.2,31.6,18,34c6.8-2.5,16.2-11.4,17.6-20C35.8,13.4,35.9,12.6,35.9,11.8z"/>
	<path class="st2" d="M4.1,9.3c0.3-0.5,1.2-2.1,3.1-3c1.9-0.9,3.8-0.8,4.4-0.7"/>
	<path class="st2" d="M21.5,7.9c0.4-0.5,1.3-1.4,2.7-2c1.3-0.5,2.4-0.5,3-0.5"/>
	<path class="st3" d="M18.9,30.6c4.3-2.5,10.6-7.3,13.5-15.3c0.3-0.9,0.6-1.8,0.8-2.6"/>
</g>
</svg>
