<?xml version="1.0" encoding="utf-8"?>
<!-- Generator: Adobe Illustrator 26.5.0, SVG Export Plug-In . SVG Version: 6.00 Build 0)  -->
<svg version="1.1" id="Layer_1" xmlns="http://www.w3.org/2000/svg" xmlns:xlink="http://www.w3.org/1999/xlink" x="0px" y="0px"
	 viewBox="0 0 36 36" style="enable-background:new 0 0 36 36;" xml:space="preserve">
<style type="text/css">
	.st0{fill:#31373D;}
	.st1{fill:#E0AA22;}
	.st2{fill:#C1694F;}
</style>
<path class="st0" d="M21.9,24.7c0.7,0,1.4,0,1.4-1.1c0-1.1-1.8-1.1-1.8-2.3v-0.6c0-1.1,1.8-1.1,1.8-2.3c0-1.1-0.6-1.1-1.4-1.1
	l-2.8,0c-0.7,0-1.4,0.5-1.4,1.1v5.1c0,0.6,0.6,1.1,1.4,1.1L21.9,24.7z"/>
<path class="st1" d="M17.8,27.7c0.8,0,1.5-0.7,1.5-1.5l0-19.6c-1.5-1.4,0-5.1-1.5-5.1c-0.8,0,0.7,5.1-1.5,5.7l0,19
	C16.4,27,17,27.7,17.8,27.7z"/>
<path class="st1" d="M10.4,4c0,2.2,1.8,4,4,4c2.2,0,4-1.8,4-4c0-2.2-1.8-4-4-4C12.2,0,10.4,1.8,10.4,4z M16.9,4
	c0,1.4-1.1,2.5-2.5,2.5S11.8,5.5,11.8,4c0-1.4,1.1-2.5,2.5-2.5S16.9,2.6,16.9,4z"/>
<path class="st1" d="M17.6,4c0,2.2,1.8,4,4,4c2.2,0,4-1.8,4-4c0-2.2-1.8-4-4-4C19.4,0,17.6,1.8,17.6,4z M24.2,4
	c0,1.4-1.1,2.5-2.5,2.5S19.1,5.5,19.1,4c0-1.4,1.1-2.5,2.5-2.5C23,1.5,24.2,2.6,24.2,4z"/>
<path class="st1" d="M19.3,10.2c0.8,0,1.5,0.7,1.5,1.5c0,0.8-0.7,1.5-1.5,1.5h-2.9c-0.8,0-1.5-0.7-1.5-1.5c0-0.8,0.7-1.5,1.5-1.5
	L19.3,10.2z"/>
<circle class="st1" cx="18" cy="2.1" r="0.7"/>
<path class="st2" d="M32,18.6c0-4.3-3.5-7.7-7.7-7.7c-2.6,0-4.9,1.3-6.3,3.2c-1.4-2-3.7-3.2-6.3-3.2c-4.3,0-7.7,3.5-7.7,7.7
	c0,0.6,0.1,1.2,0.2,1.8C5.3,27,12.7,34.1,18,36c5.3-1.9,12.7-9,13.8-15.6C31.9,19.8,32,19.2,32,18.6z"/>
</svg>
