<?xml version="1.0" encoding="utf-8"?>
<!-- Generator: Adobe Illustrator 26.5.0, SVG Export Plug-In . SVG Version: 6.00 Build 0)  -->
<svg version="1.1" id="Layer_1" xmlns="http://www.w3.org/2000/svg" xmlns:xlink="http://www.w3.org/1999/xlink" x="0px" y="0px"
	 viewBox="0 0 36 36" style="enable-background:new 0 0 36 36;" xml:space="preserve">
<style type="text/css">
	.st0{fill:#EF7BAB;}
	.st1{fill:#F4F4F4;}
</style>
<path class="st0" d="M35.9,11.8C35.9,6.4,31.5,2,26,2c-3.3,0-6.2,1.6-8,4.1C16.2,3.6,13.3,2,10,2c-5.4,0-9.9,4.4-9.9,9.9
	c0,0.8,0.1,1.5,0.3,2.2C1.8,22.6,11.2,31.6,18,34c6.8-2.5,16.2-11.4,17.6-20C35.8,13.4,35.9,12.6,35.9,11.8z"/>
<path class="st1" d="M20.9,8.6l1-2.1l-4.5-2.1l-1,2.1l-0.3-0.1c0,0-0.9-0.3-1.6,0.5c-0.7,0.8-6.1,6.8-6.1,6.8s-1.1,1.2-0.1,2.3
	c0.9,0.9,7.7,4.7,9,5c1.2,0.3,1.6-0.9,1.6-0.9l2.7-9.9C21.8,9.2,21.2,8.8,20.9,8.6z M16.4,18.2l-5.4-3l2.9-3.4l3.9,2.1L16.4,18.2z"
	/>
<g>
	<polygon class="st1" points="16.2,15.8 14.2,15.8 15.8,16.7 	"/>
	<polygon class="st1" points="21,15.8 21.9,15.8 21.9,12.8 	"/>
	<path class="st1" d="M19.8,20.3c-0.2,0.8-1,1.7-2.1,1.7c-0.1,0-0.3,0-0.4-0.1v0v0h-3.1v3.1h3.1v3.1h-3.1v3.1h4.6v-3.1h3.1v-3.1
		h-3.1V22h3.1v0v-3.1v0h-1.7L19.8,20.3z"/>
</g>
</svg>
