<?xml version="1.0" encoding="utf-8"?>
<!-- Generator: Adobe Illustrator 26.5.0, SVG Export Plug-In . SVG Version: 6.00 Build 0)  -->
<svg version="1.1" xmlns="http://www.w3.org/2000/svg" xmlns:xlink="http://www.w3.org/1999/xlink" x="0px" y="0px"
	 viewBox="0 0 36 36" style="enable-background:new 0 0 36 36;" xml:space="preserve">
<style type="text/css">
	.st0{display:none;}
	.st1{display:inline;}
	.st2{fill:#FDCC57;}
	.st3{fill:#F4900C;}
	.st4{fill:none;stroke:#A30112;stroke-width:2.25;stroke-linecap:round;stroke-linejoin:round;stroke-miterlimit:10;}
</style>
<g id="Layer_2" class="st0">
	<g id="j8SYiH.tif" class="st1">
		
			<image style="overflow:visible;" width="565" height="507" id="Layer_0_00000038410801904133382030000005754528853446845842_" xlink:href="2D8317C8C575078D.png"  transform="matrix(6.353983e-02 0 0 6.353983e-02 0.1 1.6927)">
		</image>
	</g>
</g>
<g id="Layer_1">
	<g id="Layer_1_00000041263951262211509410000013205588906379000731_">
		<path class="st2" d="M35.9,11.8C35.9,6.4,31.5,2,26,2c-3.3,0-6.2,1.6-8,4.1C16.2,3.6,13.3,2,10,2c-5.4,0-9.9,4.4-9.9,9.9
			c0,0.8,0.1,1.5,0.3,2.2C1.8,22.6,11.2,31.6,18,34c6.8-2.5,16.2-11.4,17.6-20C35.8,13.4,35.9,12.6,35.9,11.8z"/>
	</g>
	<g id="Layer_2_00000141431047959696227050000014793183391833012355_">
		<path class="st3" d="M20.4,28.2c0.4-1.3,0.6-2.6-0.1-9.1c-0.9-8.4-1.7-11.6-1.6-13.7c-0.2,0.2-0.4,0.5-0.6,0.7
			C16.2,3.6,13.3,2,10,2c-5.4,0-9.9,4.4-9.9,9.9c0,0.8,0.1,1.5,0.3,2.2c1.3,8.1,9.8,16.5,16.5,19.5C18.2,32.3,19.6,30.6,20.4,28.2z"
			/>
	</g>
	<g id="Layer_3">
		<line class="st4" x1="14.8" y1="9.6" x2="22.2" y2="8.7"/>
		<line class="st4" x1="15.7" y1="14.3" x2="24.4" y2="21.1"/>
		<line class="st4" x1="16.5" y1="26.8" x2="23.3" y2="27.9"/>
		<line class="st4" x1="16.9" y1="21.7" x2="22.8" y2="15.2"/>
	</g>
</g>
</svg>
