<svg xmlns="http://www.w3.org/2000/svg" viewBox="0 0 200 120" style="enable-background:new 0 0 200 120;" >
	<g>
		<path fill="#007d47" d="M0 0h200v40H0z"/>
		<path fill="#5f3a97" d="M0 80h200v40H0z"/>
		<g fill="#fff">
			<path d="M0 40h200v40H0z"/>
			<circle cx="100" cy="63.5" r="40"/>
		</g>
	</g>
	<g>
		<path d="M100,39.5c13.3,0,24,10.7,24,24s-10.7,24-24,24s-24-10.7-24-24S86.7,39.5,100,39.5 M100,36c-15.2,0-27.5,12.3-27.5,27.5 S84.8,91,100,91s27.5-12.3,27.5-27.5S115.2,36,100,36L100,36z"/>
		<path d="m100 34.2 26.3 46.5H73.7L100 34.2m0-7.1-3 5.4L70.7 79l-2.9 5.2h64.5l-2.9-5.2L103 32.5l-3-5.4z"/>
		<path fill="none" stroke="#000" stroke-width="3.5" stroke-miterlimit="10" d="m88 87 12-49M112 87l-12-49M112 87 80 46M125 69 80 46M75 69l45-23M88 87l32-41M75 69h50"/>
	</g>
</svg>
