<?xml version="1.0" encoding="utf-8"?>
<!-- Generator: Adobe Illustrator 26.5.0, SVG Export Plug-In . SVG Version: 6.00 Build 0)  -->
<svg version="1.1" xmlns="http://www.w3.org/2000/svg" xmlns:xlink="http://www.w3.org/1999/xlink" x="0px" y="0px"
	 viewBox="0 0 42 42" style="enable-background:new 0 0 42 42;" xml:space="preserve">
<style type="text/css">
	.st0{fill:#BFBFBF;}
	.st1{fill:#D3D3D3;}
	.st2{fill:#EDEDED;}
</style>
<g id="zipper">
	<g>
		<path class="st0" d="M21,24.5c-1.9,0-3.5-1.6-3.5-3.5c0-0.4,0-0.7,0-0.9c-0.2-1.6-1.4-2.1-2.2-2.4c-0.2-0.1-0.4-0.2-0.5-0.2
			l-0.2-0.1V6.5h13v10.8l-0.2,0.1c-0.1,0.1-0.3,0.1-0.5,0.2c-0.8,0.3-2,0.8-2.2,2.4c0,0.3,0,0.6,0,0.9C24.5,22.9,22.9,24.5,21,24.5z
			"/>
		<path d="M27,7v10c-0.6,0.3-2.7,0.7-3,3c0,0.3,0,0.6,0,1c0,1.7-1.3,3-3,3s-3-1.3-3-3c0-0.4,0-0.7,0-1c-0.3-2.3-2.4-2.7-3-3V7H27
			 M28,6h-1H15h-1v1v10v0.6l0.5,0.3c0.2,0.1,0.4,0.2,0.6,0.3c1,0.4,1.8,0.8,1.9,2c0,0.2,0,0.5,0,0.8l0,0.1V21c0,2.2,1.8,4,4,4
			s4-1.8,4-4v-0.1l0-0.1c0-0.3,0-0.5,0-0.8c0.1-1.2,1-1.6,1.9-2c0.2-0.1,0.4-0.2,0.6-0.3l0.5-0.3V17V7V6L28,6z"/>
	</g>
	<g>
		<path class="st0" d="M7,24.5c-1.9,0-3.5-1.6-3.5-3.5c0-0.4,0-0.7,0-0.9c-0.2-1.6-1.4-2.1-2.2-2.4c-0.2-0.1-0.4-0.2-0.5-0.2
			l-0.2-0.1V6.5h13v10.8l-0.2,0.1c-0.1,0.1-0.3,0.1-0.5,0.2c-0.8,0.3-2,0.8-2.2,2.4c0,0.3,0,0.6,0,0.9C10.5,22.9,8.9,24.5,7,24.5z"
			/>
		<path d="M13,7v10c-0.6,0.3-2.7,0.7-3,3c0,0.3,0,0.6,0,1c0,1.7-1.3,3-3,3s-3-1.3-3-3c0-0.4,0-0.7,0-1c-0.3-2.3-2.4-2.7-3-3V7H13
			 M14,6h-1H1H0v1v10v0.6l0.5,0.3C0.7,18,0.9,18,1.1,18.1c1,0.4,1.8,0.8,1.9,2c0,0.2,0,0.5,0,0.8l0,0.1V21c0,2.2,1.8,4,4,4
			s4-1.8,4-4v-0.1l0-0.1c0-0.3,0-0.5,0-0.8c0.1-1.2,1-1.6,1.9-2c0.2-0.1,0.4-0.2,0.6-0.3l0.5-0.3V17V7V6L14,6z"/>
	</g>
	<g>
		<path class="st0" d="M7.5,35.5V24.7l0.2-0.1c0.1-0.1,0.3-0.1,0.5-0.2c0.8-0.3,2-0.8,2.2-2.4c0-0.3,0-0.6,0-0.9
			c0-2,1.6-3.6,3.5-3.6s3.5,1.6,3.5,3.5c0,0.4,0,0.7,0,0.9c0.2,1.6,1.4,2.1,2.2,2.4c0.2,0.1,0.4,0.2,0.5,0.2l0.2,0.1v10.8H7.5z"/>
		<path d="M14,18c1.7,0,3,1.3,3,3c0,0.4,0,0.7,0,1c0.3,2.3,2.4,2.7,3,3v10H8V25c0.6-0.3,2.7-0.7,3-3c0-0.3,0-0.6,0-1
			C11,19.3,12.3,18,14,18 M14,17c-2.2,0-4,1.8-4,4v0.1l0,0.1c0,0.3,0,0.5,0,0.8c-0.1,1.2-1,1.6-1.9,2C7.9,24,7.7,24,7.5,24.1L7,24.4
			V25v10v1h1h12h1v-1V25v-0.6l-0.5-0.3c-0.2-0.1-0.4-0.2-0.6-0.3c-1-0.4-1.8-0.8-1.9-2c0-0.2,0-0.5,0-0.8l0-0.1V21
			C18,18.8,16.2,17,14,17L14,17z"/>
	</g>
	<g>
		<path class="st0" d="M-6.5,35.5V24.7l0.2-0.1c0.1-0.1,0.3-0.1,0.5-0.2c0.8-0.3,2-0.8,2.2-2.4c0-0.3,0-0.6,0-0.9
			c0-2,1.6-3.6,3.5-3.6s3.5,1.6,3.5,3.5c0,0.4,0,0.7,0,0.9c0.2,1.6,1.4,2.1,2.2,2.4c0.2,0.1,0.4,0.2,0.5,0.2l0.2,0.1v10.8H-6.5z"/>
		<path d="M0,18c1.7,0,3,1.3,3,3c0,0.4,0,0.7,0,1c0.3,2.3,2.4,2.7,3,3v10H-6V25c0.6-0.3,2.7-0.7,3-3c0-0.3,0-0.6,0-1
			C-3,19.3-1.7,18,0,18 M0,17c-2.2,0-4,1.8-4,4v0.1l0,0.1c0,0.3,0,0.5,0,0.8c-0.1,1.2-1,1.6-1.9,2C-6.1,24-6.3,24-6.5,24.1L-7,24.4
			V25v10v1h1H6h1v-1V25v-0.6l-0.5-0.3C6.3,24,6.1,24,5.9,23.9c-1-0.4-1.8-0.8-1.9-2c0-0.2,0-0.5,0-0.8l0-0.1V21C4,18.8,2.2,17,0,17
			L0,17z"/>
	</g>
	<g>
		<path class="st0" d="M21.5,35.5V24.7l0.2-0.1c0.1-0.1,0.3-0.1,0.5-0.2c0.8-0.3,2-0.8,2.2-2.4c0-0.3,0-0.6,0-0.9
			c0-2,1.6-3.6,3.5-3.6s3.5,1.6,3.5,3.5c0,0.4,0,0.7,0,0.9c0.2,1.6,1.4,2.1,2.2,2.4c0.2,0.1,0.4,0.2,0.5,0.2l0.2,0.1v10.8H21.5z"/>
		<path d="M28,18c1.7,0,3,1.3,3,3c0,0.4,0,0.7,0,1c0.3,2.3,2.4,2.7,3,3v10H22V25c0.6-0.3,2.7-0.7,3-3c0-0.3,0-0.6,0-1
			C25,19.3,26.3,18,28,18 M28,17c-2.2,0-4,1.8-4,4v0.1l0,0.1c0,0.3,0,0.5,0,0.8c-0.1,1.2-1,1.6-1.9,2c-0.2,0.1-0.4,0.2-0.6,0.3
			L21,24.4V25v10v1h1h12h1v-1V25v-0.6l-0.5-0.3c-0.2-0.1-0.4-0.2-0.6-0.3c-1-0.4-1.8-0.8-1.9-2c0-0.2,0-0.5,0-0.8l0-0.1V21
			C32,18.8,30.2,17,28,17L28,17z"/>
	</g>
	<g>
		<path class="st0" d="M35,24.5c-1.9,0-3.5-1.6-3.5-3.5c0-0.4,0-0.7,0-0.9c-0.2-1.6-1.4-2.1-2.2-2.4c-0.2-0.1-0.4-0.2-0.5-0.2
			l-0.2-0.1V6.5h13v10.8l-0.2,0.1c-0.1,0.1-0.3,0.1-0.5,0.2c-0.8,0.3-2,0.8-2.2,2.4c0,0.3,0,0.6,0,0.9C38.5,22.9,36.9,24.5,35,24.5z
			"/>
		<path d="M41,7v10c-0.6,0.3-2.7,0.7-3,3c0,0.3,0,0.6,0,1c0,1.7-1.3,3-3,3s-3-1.3-3-3c0-0.4,0-0.7,0-1c-0.3-2.3-2.4-2.7-3-3V7H41
			 M42,6h-1H29h-1v1v10v0.6l0.5,0.3c0.2,0.1,0.4,0.2,0.6,0.3c1,0.4,1.8,0.8,1.9,2c0,0.2,0,0.5,0,0.8l0,0.1V21c0,2.2,1.8,4,4,4
			s4-1.8,4-4v-0.1l0-0.1c0-0.3,0-0.5,0-0.8c0.1-1.2,1-1.6,1.9-2c0.2-0.1,0.4-0.2,0.6-0.3l0.5-0.3V17V7V6L42,6z"/>
	</g>
	<g>
		<path class="st0" d="M35.5,35.5V24.7l0.2-0.1c0.1-0.1,0.3-0.1,0.5-0.2c0.8-0.3,2-0.8,2.2-2.4c0-0.3,0-0.6,0-0.9
			c0-2,1.6-3.6,3.5-3.6s3.5,1.6,3.5,3.5c0,0.4,0,0.7,0,0.9c0.2,1.6,1.4,2.1,2.2,2.4c0.2,0.1,0.4,0.2,0.5,0.2l0.2,0.1v10.8H35.5z"/>
		<path d="M42,18c1.7,0,3,1.3,3,3c0,0.4,0,0.7,0,1c0.3,2.3,2.4,2.7,3,3v10H36V25c0.6-0.3,2.7-0.7,3-3c0-0.3,0-0.6,0-1
			C39,19.3,40.3,18,42,18 M42,17c-2.2,0-4,1.8-4,4v0.1l0,0.1c0,0.3,0,0.5,0,0.8c-0.1,1.2-1,1.6-1.9,2c-0.2,0.1-0.4,0.2-0.6,0.3
			L35,24.4V25v10v1h1h12h1v-1V25v-0.6l-0.5-0.3c-0.2-0.1-0.4-0.2-0.6-0.3c-1-0.4-1.8-0.8-1.9-2c0-0.2,0-0.5,0-0.8l0-0.1V21
			C46,18.8,44.2,17,42,17L42,17z"/>
	</g>
</g>
<g id="tab">
	<g>
		<path d="M54.4,7c-0.8,0.8-1.5,1.7-2,2.7c-0.3,0.6-0.6,1.3-0.8,1.9c-0.6,1.6-1,3.2-1.3,4.9C50,18.1,50,19.5,50,20.4
			c0,0.2,0,0.4,0,0.6c0,0.2,0,0.4,0,0.5c0,0.6,0,1.4,0.1,2.2C49.7,23.9,49.4,24,49,24c-1.7,0-3-1.3-3-3c0-0.4,0-0.7,0-1
			c-0.3-2.3-2.4-2.7-3-3V7H54.4 M57,6h-2.6H43h-1v1v10v0.6l0.5,0.3c0.2,0.1,0.4,0.2,0.6,0.3c1,0.4,1.8,0.8,1.9,2c0,0.2,0,0.5,0,0.8
			l0,0.1V21c0,2.2,1.8,4,4,4c0.5,0,1-0.1,1.4-0.3l0.7-0.3l-0.1-0.8C51,23,51,22.3,51,21.6l0-0.2c0-0.1,0-0.2,0-0.3
			c0-0.2,0-0.3,0-0.4l0-0.2c0-0.9,0-2.2,0.3-3.7c0.3-1.6,0.7-3.2,1.2-4.7c0.2-0.6,0.5-1.2,0.8-1.8c0.4-0.9,1-1.7,1.8-2.4L57,6L57,6z
			"/>
	</g>
</g>
</svg>
