<?xml version="1.0" encoding="utf-8"?>
<!-- Generator: Adobe Illustrator 26.5.0, SVG Export Plug-In . SVG Version: 6.00 Build 0)  -->
<svg version="1.1" xmlns="http://www.w3.org/2000/svg" xmlns:xlink="http://www.w3.org/1999/xlink" x="0px" y="0px"
	 viewBox="0 0 42 42" style="enable-background:new 0 0 42 42;" xml:space="preserve">
<style type="text/css">
	.st0{fill:#BFBFBF;}
	.st1{fill:#D3D3D3;}
	.st2{fill:#EDEDED;}
</style>
<g id="zipper">
	<g>
		<path class="st0" d="M-6.5,35.5V24.7l0.2-0.1c0.1-0.1,0.3-0.1,0.5-0.2c0.8-0.3,2-0.8,2.2-2.4c0-0.3,0-0.6,0-0.9
			c0-2,1.6-3.6,3.5-3.6s3.5,1.6,3.5,3.5c0,0.4,0,0.7,0,0.9c0.2,1.6,1.4,2.1,2.2,2.4c0.2,0.1,0.4,0.2,0.5,0.2l0.2,0.1v10.8H-6.5z"/>
		<path d="M0,18c1.7,0,3,1.3,3,3c0,0.4,0,0.7,0,1c0.3,2.3,2.4,2.7,3,3v10H-6V25c0.6-0.3,2.7-0.7,3-3c0-0.3,0-0.6,0-1
			C-3,19.3-1.7,18,0,18 M0,17c-2.2,0-4,1.8-4,4v0.1l0,0.1c0,0.3,0,0.5,0,0.8c-0.1,1.2-1,1.6-1.9,2C-6.1,24-6.3,24-6.5,24.1L-7,24.4
			V25v10v1h1H6h1v-1V25v-0.6l-0.5-0.3C6.3,24,6.1,24,5.9,23.9c-1-0.4-1.8-0.8-1.9-2c0-0.2,0-0.5,0-0.8l0-0.1V21C4,18.8,2.2,17,0,17
			L0,17z"/>
	</g>
</g>
<g id="tab">
	<g>
		<path class="st0" d="M18.5,23.5c-1.4,0-2.5-1.1-2.5-2.5s1.1-2.5,2.5-2.5h14c1.4,0,2.5,1.1,2.5,2.5s-1.1,2.5-2.5,2.5H18.5z"/>
		<path d="M32.5,19c1.1,0,2,0.9,2,2s-0.9,2-2,2h-14c-1.1,0-2-0.9-2-2s0.9-2,2-2H32.5 M32.5,18h-14c-1.7,0-3,1.3-3,3s1.3,3,3,3h14
			c1.7,0,3-1.3,3-3S34.2,18,32.5,18L32.5,18z"/>
	</g>
	<g>
		<path class="st1" d="M18.8,37c-3.4,0-6.5-1.9-7.9-4.9c-0.3-0.6-0.6-1.2-0.8-1.9c-1.1-2.9-1.6-6-1.6-9.2c-0.1-3.1,0.5-6.2,1.6-9.2
			c0.2-0.6,0.5-1.3,0.8-1.9c1.4-3,4.5-4.9,7.9-4.9c1,0,2,0.2,2.9,0.5c1,0.3,2,0.7,3,1c2.4,0.9,4.8,1.8,7.4,2.8l1.9,0.8l-3.7,0.4
			c-0.7,0.1-1.3,0.3-1.8,0.7c-0.9,0.7-1.7,1.6-2.4,2.6c-0.9,1.3-1.5,2.8-1.8,4.4l-0.1,0.4h-5.7c-1.4,0-2.5,1.1-2.5,2.5
			s1.1,2.5,2.5,2.5h5.7l0.1,0.4c0.3,1.6,0.9,3.1,1.8,4.4c0.7,1,1.5,1.8,2.4,2.6c0.5,0.4,1.1,0.7,1.8,0.7l3.7,0.4l-1.9,0.8
			c-2.6,1-5,1.9-7.4,2.8c-1,0.4-2,0.7-3,1C20.7,36.8,19.8,37,18.8,37C18.8,37,18.8,37,18.8,37z"/>
		<path d="M18.8,5.5c0.9,0,1.8,0.1,2.7,0.5c1,0.3,2,0.7,3,1c2.5,0.9,5,1.8,7.4,2.8c-0.6,0.1-1.1,0.1-1.7,0.2
			c-0.8,0.1-1.5,0.4-2.1,0.8c-1,0.8-1.8,1.7-2.5,2.7c-1.1,1.6-1.6,3.1-1.9,4.6h-5.3c-1.7,0-3,1.3-3,3c0,1.7,1.3,3,3,3h5.3
			c0.3,1.4,0.8,3,1.9,4.6c0.7,1,1.5,1.9,2.5,2.7c0.6,0.5,1.3,0.8,2.1,0.8c0.5,0.1,1.1,0.1,1.7,0.2c-2.4,0.9-4.8,1.9-7.4,2.8
			c-1,0.4-2,0.7-3,1c-0.9,0.3-1.8,0.5-2.7,0.5c-3.1,0-6.1-1.7-7.5-4.7c-0.3-0.6-0.5-1.2-0.8-1.8c-1.4-3.7-1.6-7-1.5-9
			c0-2,0.1-5.3,1.5-9c0.2-0.6,0.5-1.3,0.8-1.8C12.7,7.2,15.7,5.5,18.8,5.5 M18.8,4.5c-3.6,0-6.9,2.1-8.4,5.2
			c-0.3,0.6-0.6,1.3-0.8,1.9c-1.1,3-1.7,6.2-1.6,9.4c-0.1,3.2,0.5,6.3,1.6,9.3c0.2,0.6,0.5,1.3,0.8,1.9c1.5,3.2,4.8,5.2,8.4,5.2
			c1,0,2.1-0.2,3-0.5c1-0.3,2-0.7,3-1c2.4-0.9,4.8-1.8,7.4-2.8l3.9-1.5L32,31.2l-0.7-0.1l-1-0.1c-0.6-0.1-1.1-0.3-1.6-0.6
			c-0.9-0.7-1.6-1.5-2.3-2.5c-0.9-1.3-1.4-2.7-1.8-4.2L24.6,23h-0.8h-5.3c-1.1,0-2-0.9-2-2s0.9-2,2-2h5.3h0.8l0.2-0.8
			c0.3-1.5,0.9-2.9,1.8-4.2c0.6-0.9,1.4-1.8,2.3-2.5c0.4-0.3,1-0.6,1.6-0.6l1-0.1l0.7-0.1l4.2-0.4l-3.9-1.5c-2.6-1-5-1.9-7.4-2.8
			c-1-0.4-2-0.7-3-1C20.9,4.7,19.8,4.5,18.8,4.5L18.8,4.5z"/>
	</g>
	<g>
		<path class="st2" d="M72.6,36.4c-0.1,0-0.3,0-0.4,0c-3.4-0.2-5.9-0.5-9.8-0.9c-3.7-0.4-7.4-1-11-1.6c-4-0.5-8-1-12-1.4
			c-3.1-0.3-6.1-0.6-9.2-0.9c-0.7-0.1-1.3-0.3-1.8-0.7c-0.9-0.7-1.7-1.6-2.4-2.6c-0.8-1.2-1.4-2.7-1.8-4.2l-0.1-0.6h2.3l0.1,0.3
			c1.1,2.3,3.4,3.7,5.9,3.7c3.6,0,6.5-2.9,6.5-6.5s-2.9-6.5-6.5-6.5c-2.5,0-4.8,1.5-5.9,3.7l-0.1,0.3h-2.3l0.1-0.6
			c0.3-1.5,0.9-2.9,1.8-4.2c0.7-1,1.5-1.8,2.4-2.6c0.5-0.4,1.1-0.7,1.8-0.7c3-0.3,6.1-0.6,9.2-0.9c4-0.4,8-0.9,12-1.4
			c3.6-0.6,7.3-1.2,11-1.6c3.9-0.4,6.4-0.7,9.8-0.9c0.1,0,0.3,0,0.4,0c1.7,0,3.4,0.6,4.7,1.7c0.5,0.4,1,0.9,1.5,1.4
			C83,13.1,83.1,18.8,83,21c0.1,2.2,0,7.9-4.1,12.3c-0.5,0.5-1,1-1.5,1.4C76,35.8,74.4,36.4,72.6,36.4z M70,11.5c-3.3,0-6,4.3-6,9.5
			s2.7,9.5,6,9.5s6-4.3,6-9.5S73.3,11.5,70,11.5z"/>
		<path d="M72.6,6.1c1.6,0,3.2,0.5,4.4,1.5C77.5,8,78,8.5,78.5,9c4.2,4.5,4.1,10.4,4,12c0.1,1.6,0.2,7.5-4,12c-0.5,0.5-1,1-1.5,1.4
			c-1.3,1-2.8,1.5-4.4,1.5c-0.1,0-0.3,0-0.4,0c-3.4-0.2-6-0.5-9.7-0.9c-3.9-0.4-7.5-1-11-1.6c-3.9-0.5-7.9-1-12-1.4
			c-3.1-0.3-6.1-0.6-9.2-0.9c-0.6-0.1-1.1-0.3-1.6-0.6c-0.7-0.6-1.5-1.4-2.3-2.5c-0.9-1.4-1.4-2.8-1.7-4h1.4c1.1,2.4,3.5,4,6.3,4
			c3.9,0,7-3.1,7-7c0-3.9-3.1-7-7-7c-2.8,0-5.2,1.6-6.3,4h-1.4c0.3-1.2,0.8-2.6,1.7-4c0.7-1.1,1.6-1.9,2.3-2.5
			c0.4-0.4,1-0.6,1.6-0.6c3-0.3,6.1-0.6,9.2-0.9c4.1-0.4,8.1-0.9,12-1.4C55,8,58.7,7.4,62.5,7c3.7-0.4,6.3-0.7,9.7-0.9
			C72.4,6.1,72.5,6.1,72.6,6.1 M70,31c3.6,0,6.5-4.5,6.5-10c0-5.5-2.9-10-6.5-10c-3.6,0-6.5,4.5-6.5,10C63.5,26.5,66.4,31,70,31
			 M72.6,5.1C72.6,5.1,72.6,5.1,72.6,5.1C72.6,5.1,72.6,5.1,72.6,5.1c-0.1,0-0.3,0-0.4,0c-3.4,0.2-5.9,0.5-9.8,0.9
			c-3.7,0.4-7.4,1-11,1.6c-4,0.5-8,1-12,1.4c-3,0.3-6.1,0.6-9.2,0.9c-0.8,0.1-1.5,0.4-2.1,0.8c-1,0.8-1.8,1.7-2.5,2.7
			c-0.9,1.3-1.5,2.8-1.9,4.3L23.6,19h1.2h1.4h0.6l0.3-0.6c1-2.1,3.1-3.4,5.4-3.4c3.3,0,6,2.7,6,6s-2.7,6-6,6c-2.3,0-4.4-1.3-5.4-3.4
			L26.8,23h-0.6h-1.4h-1.2l0.3,1.2c0.3,1.6,1,3,1.9,4.3c0.7,1,1.5,1.9,2.5,2.7c0.6,0.5,1.3,0.8,2.1,0.8c3,0.3,6.1,0.6,9.2,0.9
			c4,0.4,8,0.9,12,1.4c3.6,0.7,7.4,1.2,11,1.6c3.9,0.4,6.4,0.7,9.8,0.9c0.1,0,0.3,0,0.4,0c1.8,0,3.6-0.6,5-1.8
			c0.6-0.4,1.1-0.9,1.6-1.5c4.2-4.5,4.4-10.3,4.3-12.7c0.1-2.4-0.1-8.2-4.3-12.7c-0.5-0.5-1-1-1.6-1.5C76.3,5.7,74.5,5.1,72.6,5.1
			L72.6,5.1L72.6,5.1z M70,30c-3,0-5.5-4.1-5.5-9s2.5-9,5.5-9c3,0,5.5,4.1,5.5,9S73,30,70,30L70,30z"/>
	</g>
	<g>
		<path class="st0" d="M7,24.5c-1.9,0-3.5-1.6-3.5-3.5c0-0.4,0-0.7,0-0.9c-0.2-1.6-1.4-2.1-2.2-2.4c-0.2-0.1-0.4-0.2-0.5-0.2
			l-0.2-0.1V6.5h13.2l-0.9,0.9C12,8.1,11.3,9,10.9,9.9c-0.3,0.6-0.6,1.2-0.8,1.9c-0.6,1.5-1,3.1-1.3,4.8c-0.3,1.6-0.3,3-0.3,3.8v1.1
			c0,0.7,0,1.5,0.1,2.2l0,0.4l-0.4,0.1C7.8,24.4,7.4,24.5,7,24.5z"/>
		<path d="M12.4,7c-0.8,0.8-1.5,1.7-2,2.7c-0.3,0.6-0.6,1.3-0.8,1.9c-0.6,1.6-1,3.2-1.3,4.9C8,18.1,8,19.5,8,20.4c0,0.2,0,0.4,0,0.6
			c0,0.2,0,0.4,0,0.5c0,0.6,0,1.4,0.1,2.2C7.7,23.9,7.4,24,7,24c-1.7,0-3-1.3-3-3c0-0.4,0-0.7,0-1c-0.3-2.3-2.4-2.7-3-3V7H12.4
			 M15,6h-2.6H1H0v1v10v0.6l0.5,0.3C0.7,18,0.9,18,1.1,18.1c1,0.4,1.8,0.8,1.9,2c0,0.2,0,0.5,0,0.8l0,0.1V21c0,2.2,1.8,4,4,4
			c0.5,0,1-0.1,1.4-0.3l0.7-0.3l-0.1-0.8C9,23,9,22.3,9,21.6l0-0.2c0-0.1,0-0.2,0-0.3c0-0.2,0-0.3,0-0.4l0-0.2c0-0.9,0-2.2,0.3-3.7
			c0.3-1.6,0.7-3.2,1.2-4.7c0.2-0.6,0.5-1.2,0.8-1.8c0.4-0.9,1-1.7,1.8-2.4L15,6L15,6z"/>
	</g>
	<g>
		<path class="st0" d="M7.5,35.5V24.7l0.2-0.1c0.1,0,0.1-0.1,0.2-0.1l0.6-0.3l0.2,1c0.3,1.7,0.7,3.4,1.3,5c0.2,0.6,0.5,1.3,0.8,1.9
			c0.4,0.9,1.1,1.8,1.9,2.6l0.9,0.9H7.5z"/>
		<path d="M8.2,24.9c0,0.1,0,0.2,0.1,0.4C8.5,27,9,28.7,9.6,30.4c0.2,0.6,0.5,1.3,0.8,1.9c0.5,1.1,1.2,2,2,2.7H8V25
			C8,25,8.1,24.9,8.2,24.9 M9,23.5L7.8,24l0.4,0.9L7.8,24c-0.1,0-0.2,0.1-0.3,0.1L7,24.4V25v10v1h1h4.4H15l-1.9-1.7
			c-0.8-0.7-1.4-1.5-1.8-2.4c-0.3-0.6-0.5-1.2-0.8-1.8c-0.6-1.6-1-3.2-1.3-4.9l0-0.2c0-0.1,0-0.1,0-0.2L9,23.5L9,23.5z"/>
	</g>
</g>
</svg>
