<?xml version="1.0" encoding="utf-8"?>
<!-- Generator: Adobe Illustrator 26.5.0, SVG Export Plug-In . SVG Version: 6.00 Build 0)  -->
<svg version="1.1" xmlns="http://www.w3.org/2000/svg" xmlns:xlink="http://www.w3.org/1999/xlink" x="0px" y="0px"
	 viewBox="0 0 42 42" style="enable-background:new 0 0 42 42;" xml:space="preserve">
<style type="text/css">
	.st0{fill:#BFBFBF;}
	.st1{fill:#D3D3D3;}
	.st2{fill:#EDEDED;}
</style>
<g id="zipper">
</g>
<g id="tab">
	<g>
		<path class="st2" d="M30.6,36.4c-0.1,0-0.3,0-0.4,0c-3.4-0.2-5.9-0.5-9.8-0.9c-3.7-0.4-7.4-1-11-1.6c-4-0.5-8-1-12-1.4
			c-3.1-0.3-6.1-0.6-9.2-0.9c-0.7-0.1-1.3-0.3-1.8-0.7c-0.9-0.7-1.7-1.6-2.4-2.6c-0.8-1.2-1.4-2.7-1.8-4.2l-0.1-0.6h2.3l0.1,0.3
			c1.1,2.3,3.4,3.7,5.9,3.7c3.6,0,6.5-2.9,6.5-6.5s-2.9-6.5-6.5-6.5c-2.5,0-4.8,1.5-5.9,3.7l-0.1,0.3h-2.3l0.1-0.6
			c0.3-1.5,0.9-2.9,1.8-4.2c0.7-1,1.5-1.8,2.4-2.6c0.5-0.4,1.1-0.7,1.8-0.7c3-0.3,6.1-0.6,9.2-0.9c4-0.4,8-0.9,12-1.4
			c3.6-0.6,7.3-1.2,11-1.6c3.9-0.4,6.4-0.7,9.8-0.9c0.1,0,0.3,0,0.4,0c1.7,0,3.4,0.6,4.7,1.7c0.5,0.4,1,0.9,1.5,1.4
			C41,13.1,41.1,18.8,41,21c0.1,2.2,0,7.9-4.1,12.3c-0.5,0.5-1,1-1.5,1.4C34,35.8,32.4,36.4,30.6,36.4z M28,11.5c-3.3,0-6,4.3-6,9.5
			s2.7,9.5,6,9.5s6-4.3,6-9.5S31.3,11.5,28,11.5z"/>
		<path d="M30.6,6.1c1.6,0,3.2,0.5,4.4,1.5C35.5,8,36,8.5,36.5,9c4.2,4.5,4.1,10.4,4,12c0.1,1.6,0.2,7.5-4,12c-0.5,0.5-1,1-1.5,1.4
			c-1.3,1-2.8,1.5-4.4,1.5c-0.1,0-0.3,0-0.4,0c-3.4-0.2-6-0.5-9.7-0.9c-3.9-0.4-7.5-1-11-1.6c-3.9-0.5-7.9-1-12-1.4
			c-3.1-0.3-6.1-0.6-9.2-0.9c-0.6-0.1-1.1-0.3-1.6-0.6c-0.7-0.6-1.5-1.4-2.3-2.5c-0.9-1.4-1.4-2.8-1.7-4h1.4c1.1,2.4,3.5,4,6.3,4
			c3.9,0,7-3.1,7-7c0-3.9-3.1-7-7-7c-2.8,0-5.2,1.6-6.3,4h-1.4c0.3-1.2,0.8-2.6,1.7-4c0.7-1.1,1.6-1.9,2.3-2.5
			c0.4-0.4,1-0.6,1.6-0.6c3-0.3,6.1-0.6,9.2-0.9c4.1-0.4,8.1-0.9,12-1.4C13,8,16.7,7.4,20.5,7c3.7-0.4,6.3-0.7,9.7-0.9
			C30.4,6.1,30.5,6.1,30.6,6.1 M28,31c3.6,0,6.5-4.5,6.5-10c0-5.5-2.9-10-6.5-10c-3.6,0-6.5,4.5-6.5,10C21.5,26.5,24.4,31,28,31
			 M30.6,5.1C30.6,5.1,30.6,5.1,30.6,5.1C30.6,5.1,30.6,5.1,30.6,5.1c-0.1,0-0.3,0-0.4,0c-3.4,0.2-5.9,0.5-9.8,0.9
			c-3.7,0.4-7.4,1-11,1.6c-4,0.5-8,1-12,1.4c-3,0.3-6.1,0.6-9.2,0.9c-0.8,0.1-1.5,0.4-2.1,0.8c-1,0.8-1.8,1.7-2.5,2.7
			c-0.9,1.3-1.5,2.8-1.9,4.3l-0.3,1.2h1.2h1.4h0.6l0.3-0.6c1-2.1,3.1-3.4,5.4-3.4c3.3,0,6,2.7,6,6s-2.7,6-6,6
			c-2.3,0-4.4-1.3-5.4-3.4l-0.3-0.6h-0.6h-1.4h-1.2l0.3,1.2c0.3,1.6,1,3,1.9,4.3c0.7,1,1.5,1.9,2.5,2.7c0.6,0.5,1.3,0.8,2.1,0.8
			c3,0.3,6.1,0.6,9.2,0.9c4,0.4,8,0.9,12,1.4c3.6,0.7,7.4,1.2,11,1.6c3.9,0.4,6.4,0.7,9.8,0.9c0.1,0,0.3,0,0.4,0
			c1.8,0,3.6-0.6,5-1.8c0.6-0.4,1.1-0.9,1.6-1.5c4.2-4.5,4.4-10.3,4.3-12.7c0.1-2.4-0.1-8.2-4.3-12.7c-0.5-0.5-1-1-1.6-1.5
			C34.3,5.7,32.5,5.1,30.6,5.1L30.6,5.1L30.6,5.1z M28,30c-3,0-5.5-4.1-5.5-9s2.5-9,5.5-9c3,0,5.5,4.1,5.5,9S31,30,28,30L28,30z"/>
	</g>
</g>
</svg>
